# xmcd
#
# Track frame offsets: 
#        150
#        10952
#        21934
#        37128
#        44258
#        57760
#        70758
#        80516
#        97114
#        109176
#        123902
#        135136
#
# Disc length: 1934 seconds
#
# Revision: 0
# Processed by: cddbd v1.5.2PL0 Copyright (c) Steve Scherf et al.
# Submitted via: ExactAudioCopy v1.0b3
#
DISCID=9a078c0c
DTITLE=Ben Brouwers - Engine Driver
DYEAR=1983
DGENRE=Bluegrass
TTITLE0=Diesel On My Trail
TTITLE1=Ragtime Anny
TTITLE2=Close Door Lightly
TTITLE3=Cannon Ball Rag
TTITLE4=Sweetest Song I Sing
TTITLE5=Iron Line
TTITLE6=Nine Pound Hammer
TTITLE7=Propinquity
TTITLE8=Sittin' On Top Of The World
TTITLE9=Louise
TTITLE10=Black Mountain Rag
TTITLE11=Stackolee
EXTD=
EXTT0=
EXTT1=
EXTT2=
EXTT3=
EXTT4=
EXTT5=
EXTT6=
EXTT7=
EXTT8=
EXTT9=
EXTT10=
EXTT11=
PLAYORDER=
